<mxfile host="app.diagrams.net" modified="2023-06-27T12:00:23.404Z" agent="Mozilla/5.0 (Macintosh; Intel Mac OS X 10_15_7) AppleWebKit/537.36 (KHTML, like Gecko) Chrome/109.0.0.0 Safari/537.36" version="21.4.0" etag="yrNsGUvBXbTYeT3Flrjm" type="github">
  <diagram name="Page-1" id="W3gInuGy6PKyidX3w2DE">
    <mxGraphModel>
      <root>
        <mxCell id="0" />
        <mxCell id="1" parent="0" />
      </root>
    </mxGraphModel>
  </diagram>
</mxfile>
